<svg xmlns="http://www.w3.org/2000/svg" width="64" height="64" viewBox="0 0 64 64">
  <defs>
    <linearGradient id="gv-gradient" x1="0%" y1="0%" x2="100%" y2="100%">
      <stop offset="0%" stop-color="#7c3aed"/>
      <stop offset="100%" stop-color="#ec4899"/>
    </linearGradient>
  </defs>
  <rect width="64" height="64" rx="14" fill="#0d0d1a"/>
  <path fill="url(#gv-gradient)" d="M20 22c-6.627 0-11 5.373-11 12l-2 10c-.5 3 1.5 5 4 5 1.5 0 2.7-.7 3.5-2l3.5-6h14l3.5 6c.8 1.3 2 2 3.5 2 2.5 0 4.5-2 4-5l-2-10c0-6.627-4.373-12-11-12H20Z"/>
  <rect x="17" y="30" width="2.6" height="9" rx="1" fill="#0d0d1a"/>
  <rect x="13.7" y="33.3" width="9" height="2.6" rx="1" fill="#0d0d1a"/>
  <circle cx="44" cy="30" r="2.2" fill="#0d0d1a"/>
  <circle cx="38" cy="34" r="2.2" fill="#0d0d1a"/>
</svg>
