<svg xmlns="http://www.w3.org/2000/svg" width="64" height="64" viewBox="0 0 64 64">
  <defs>
    <linearGradient id="gv-gradient" x1="10%" y1="10%" x2="90%" y2="90%">
      <stop offset="0%" stop-color="#8b3bff"/>
      <stop offset="100%" stop-color="#ff4d9d"/>
    </linearGradient>
  </defs>
  <rect width="64" height="64" rx="16" fill="#141420"/>
  <path fill="url(#gv-gradient)" d="M24 20h16c7.732 0 14 6.268 14 14 0 5.5-3 8.5-6.5 8.5-2 0-3.5-1-4.7-2.8L39 34H25l-3.8 5.7c-1.2 1.8-2.7 2.8-4.7 2.8-3.5 0-6.5-3-6.5-8.5 0-7.732 6.268-14 14-14Z"/>
  <rect x="20.5" y="26.5" width="3" height="11" rx="1.2" fill="#141420"/>
  <rect x="16.5" y="30.5" width="11" height="3" rx="1.2" fill="#141420"/>
  <circle cx="41" cy="32" r="4" fill="#141420"/>
</svg>
